<svg width="46" height="46" viewBox="0 0 46 46" fill="none" xmlns="http://www.w3.org/2000/svg">
<path d="M7.66634 15.3333H38.333V11.5H7.66634V15.3333ZM3.83301 11.5C3.83301 10.4458 4.20867 9.54368 4.96001 8.79363C5.71134 8.04357 6.61345 7.6679 7.66634 7.66663H38.333C39.3872 7.66663 40.2899 8.04229 41.0413 8.79363C41.7926 9.54496 42.1676 10.4471 42.1663 11.5V23H7.66634V34.5H15.5247V38.3333H7.66634C6.61217 38.3333 5.71006 37.9583 4.96001 37.2082C4.20995 36.4582 3.83429 35.5554 3.83301 34.5V11.5ZM28.6538 42.1666L20.508 34.0208L23.1913 31.3375L28.6538 36.7041L39.483 25.875L42.1663 28.6541L28.6538 42.1666ZM7.66634 11.5V34.5V25.875V31.2895V11.5Z" fill="#8CCFA2"/>
</svg>
