<svg width="47" height="46" viewBox="0 0 47 46" fill="none" xmlns="http://www.w3.org/2000/svg">
<path d="M23.4997 42.1667C20.8483 42.1667 18.3566 41.6633 16.0247 40.6564C13.6927 39.6495 11.6643 38.2842 9.93926 36.5605C8.21426 34.8367 6.84895 32.8083 5.84334 30.475C4.83773 28.1418 4.33429 25.6502 4.33301 23C4.33173 20.3499 4.83518 17.8583 5.84334 15.525C6.85151 13.1918 8.21682 11.1633 9.93926 9.43962C11.6617 7.7159 13.6902 6.3506 16.0247 5.34371C18.3592 4.33682 20.8508 3.83337 23.4997 3.83337C25.5761 3.83337 27.5406 4.13685 29.3934 4.74379C31.2462 5.35073 32.9552 6.19726 34.5205 7.28337L31.7413 10.1105C30.5275 9.34379 29.2337 8.74515 27.8601 8.31454C26.4865 7.88393 25.033 7.66798 23.4997 7.66671C19.2511 7.66671 15.633 9.16043 12.6456 12.1479C9.65815 15.1353 8.16507 18.7527 8.16634 23C8.16762 27.2474 9.66134 30.8654 12.6475 33.8541C15.6337 36.8428 19.2511 38.3359 23.4997 38.3334C27.7483 38.3308 31.3663 36.8377 34.3538 33.8541C37.3412 30.8705 38.8343 27.2525 38.833 23C38.833 22.425 38.8011 21.85 38.7372 21.275C38.6733 20.7 38.5775 20.141 38.4497 19.598L41.5643 16.4834C41.9156 17.5056 42.1872 18.5598 42.3788 19.6459C42.5705 20.732 42.6663 21.85 42.6663 23C42.6663 25.6514 42.1629 28.1431 41.156 30.475C40.1491 32.807 38.7838 34.8355 37.0601 36.5605C35.3364 38.2855 33.3079 39.6514 30.9747 40.6583C28.6415 41.6652 26.1498 42.168 23.4997 42.1667ZM20.8163 31.8167L12.6705 23.6709L15.3538 20.9875L20.8163 26.45L39.983 7.23546L42.6663 9.91879L20.8163 31.8167Z" fill="#37C46F"/>
</svg>
