<svg width="47" height="46" viewBox="0 0 47 46" fill="none" xmlns="http://www.w3.org/2000/svg">
<g clip-path="url(#clip0_2996_1559)">
<path d="M43.625 40.25C43.625 40.25 46.5 40.25 46.5 37.375C46.5 34.5 43.625 25.875 32.125 25.875C20.625 25.875 17.75 34.5 17.75 37.375C17.75 40.25 20.625 40.25 20.625 40.25H43.625ZM20.6882 37.375L20.625 37.3635C20.6279 36.6045 21.1051 34.4023 22.81 32.4185C24.397 30.5584 27.1857 28.75 32.125 28.75C37.0614 28.75 39.8501 30.5612 41.44 32.4185C43.1449 34.4023 43.6192 36.6074 43.625 37.3635L43.602 37.3692L43.5617 37.375H20.6882ZM32.125 20.125C33.65 20.125 35.1125 19.5192 36.1909 18.4409C37.2692 17.3625 37.875 15.9 37.875 14.375C37.875 12.85 37.2692 11.3875 36.1909 10.3091C35.1125 9.2308 33.65 8.625 32.125 8.625C30.6 8.625 29.1375 9.2308 28.0591 10.3091C26.9808 11.3875 26.375 12.85 26.375 14.375C26.375 15.9 26.9808 17.3625 28.0591 18.4409C29.1375 19.5192 30.6 20.125 32.125 20.125ZM40.75 14.375C40.75 15.5077 40.5269 16.6292 40.0935 17.6756C39.66 18.7221 39.0247 19.6729 38.2238 20.4738C37.4229 21.2747 36.4721 21.91 35.4256 22.3435C34.3792 22.7769 33.2577 23 32.125 23C30.9923 23 29.8708 22.7769 28.8244 22.3435C27.7779 21.91 26.8271 21.2747 26.0262 20.4738C25.2253 19.6729 24.59 18.7221 24.1565 17.6756C23.7231 16.6292 23.5 15.5077 23.5 14.375C23.5 12.0875 24.4087 9.89371 26.0262 8.2762C27.6437 6.6587 29.8375 5.75 32.125 5.75C34.4125 5.75 36.6063 6.6587 38.2238 8.2762C39.8413 9.89371 40.75 12.0875 40.75 14.375ZM20.441 26.68C19.2903 26.3204 18.1051 26.0824 16.9047 25.9699C16.2302 25.9041 15.5527 25.8724 14.875 25.875C3.375 25.875 0.5 34.5 0.5 37.375C0.5 39.2917 1.45833 40.25 3.375 40.25H15.496C15.07 39.3524 14.8575 38.3684 14.875 37.375C14.875 34.4712 15.9589 31.5042 18.0088 29.026C18.7074 28.1807 19.521 27.3901 20.441 26.68ZM14.645 28.75C12.9445 31.3072 12.0254 34.3042 12 37.375H3.375C3.375 36.6275 3.8465 34.4137 5.56 32.4185C7.12687 30.59 9.8495 28.8075 14.645 28.7529V28.75ZM4.8125 15.8125C4.8125 13.525 5.7212 11.3312 7.3387 9.7137C8.95621 8.0962 11.15 7.1875 13.4375 7.1875C15.725 7.1875 17.9188 8.0962 19.5363 9.7137C21.1538 11.3312 22.0625 13.525 22.0625 15.8125C22.0625 18.1 21.1538 20.2938 19.5363 21.9113C17.9188 23.5288 15.725 24.4375 13.4375 24.4375C11.15 24.4375 8.95621 23.5288 7.3387 21.9113C5.7212 20.2938 4.8125 18.1 4.8125 15.8125ZM13.4375 10.0625C11.9125 10.0625 10.45 10.6683 9.37164 11.7466C8.2933 12.825 7.6875 14.2875 7.6875 15.8125C7.6875 17.3375 8.2933 18.8 9.37164 19.8784C10.45 20.9567 11.9125 21.5625 13.4375 21.5625C14.9625 21.5625 16.425 20.9567 17.5034 19.8784C18.5817 18.8 19.1875 17.3375 19.1875 15.8125C19.1875 14.2875 18.5817 12.825 17.5034 11.7466C16.425 10.6683 14.9625 10.0625 13.4375 10.0625Z" fill="#2FC169"/>
</g>
<defs>
<clipPath id="clip0_2996_1559">
<rect width="46" height="46" fill="white" transform="translate(0.5)"/>
</clipPath>
</defs>
</svg>
